<mxfile host="Electron" modified="2023-12-14T01:12:42.500Z" agent="Mozilla/5.0 (Windows NT 10.0; Win64; x64) AppleWebKit/537.36 (KHTML, like Gecko) draw.io/22.1.2 Chrome/114.0.5735.289 Electron/25.9.4 Safari/537.36" etag="dEqcDklEHsISblwc7M8y" version="22.1.2" type="device">
  <diagram name="Page-1" id="3uhcH9n4owlPFmBK4QOw">
    <mxGraphModel dx="1619" dy="1113" grid="0" gridSize="10" guides="1" tooltips="1" connect="1" arrows="1" fold="1" page="0" pageScale="1" pageWidth="1100" pageHeight="850" math="0" shadow="0">
      <root>
        <mxCell id="0" />
        <mxCell id="1" parent="0" />
        <mxCell id="T4XdsdlbijRNTrrH30KJ-2" value="AED-UI" style="shape=umlLifeline;perimeter=lifelinePerimeter;whiteSpace=wrap;html=1;container=1;dropTarget=0;collapsible=0;recursiveResize=0;outlineConnect=0;portConstraint=eastwest;newEdgeStyle={&quot;curved&quot;:0,&quot;rounded&quot;:0};participant=umlBoundary;align=center;fontStyle=1;opacity=30;" parent="1" vertex="1">
          <mxGeometry x="310" y="90" width="80" height="2207" as="geometry" />
        </mxCell>
        <mxCell id="T4XdsdlbijRNTrrH30KJ-6" value="" style="html=1;points=[[0,0,0,0,5],[0,1,0,0,-5],[1,0,0,0,5],[1,1,0,0,-5]];perimeter=orthogonalPerimeter;outlineConnect=0;targetShapes=umlLifeline;portConstraint=eastwest;newEdgeStyle={&quot;curved&quot;:0,&quot;rounded&quot;:0};fontStyle=1" parent="T4XdsdlbijRNTrrH30KJ-2" vertex="1">
          <mxGeometry x="35" y="60" width="10" height="80" as="geometry" />
        </mxCell>
        <mxCell id="T4XdsdlbijRNTrrH30KJ-61" value="" style="html=1;points=[[0,0,0,0,5],[0,1,0,0,-5],[1,0,0,0,5],[1,1,0,0,-5]];perimeter=orthogonalPerimeter;outlineConnect=0;targetShapes=umlLifeline;portConstraint=eastwest;newEdgeStyle={&quot;curved&quot;:0,&quot;rounded&quot;:0};" parent="T4XdsdlbijRNTrrH30KJ-2" vertex="1">
          <mxGeometry x="33" y="1131" width="10" height="80" as="geometry" />
        </mxCell>
        <mxCell id="T4XdsdlbijRNTrrH30KJ-3" value="" style="shape=umlLifeline;perimeter=lifelinePerimeter;whiteSpace=wrap;html=1;container=1;dropTarget=0;collapsible=0;recursiveResize=0;outlineConnect=0;portConstraint=eastwest;newEdgeStyle={&quot;curved&quot;:0,&quot;rounded&quot;:0};participant=umlActor;fontStyle=1;opacity=30;" parent="1" vertex="1">
          <mxGeometry x="110" y="90" width="20" height="2210" as="geometry" />
        </mxCell>
        <mxCell id="T4XdsdlbijRNTrrH30KJ-5" value="" style="html=1;points=[[0,0,0,0,5],[0,1,0,0,-5],[1,0,0,0,5],[1,1,0,0,-5]];perimeter=orthogonalPerimeter;outlineConnect=0;targetShapes=umlLifeline;portConstraint=eastwest;newEdgeStyle={&quot;curved&quot;:0,&quot;rounded&quot;:0};fontStyle=1" parent="T4XdsdlbijRNTrrH30KJ-3" vertex="1">
          <mxGeometry x="5" y="60" width="10" height="40" as="geometry" />
        </mxCell>
        <mxCell id="T4XdsdlbijRNTrrH30KJ-4" value="User" style="text;align=center;fontStyle=1;verticalAlign=middle;spacingLeft=3;spacingRight=3;strokeColor=none;rotatable=0;points=[[0,0.5],[1,0.5]];portConstraint=eastwest;html=1;" parent="1" vertex="1">
          <mxGeometry x="80" y="64" width="80" height="26" as="geometry" />
        </mxCell>
        <mxCell id="T4XdsdlbijRNTrrH30KJ-7" value="Presses Power Button" style="html=1;verticalAlign=bottom;endArrow=block;curved=0;rounded=0;fontStyle=1" parent="1" source="T4XdsdlbijRNTrrH30KJ-5" target="T4XdsdlbijRNTrrH30KJ-2" edge="1">
          <mxGeometry width="80" relative="1" as="geometry">
            <mxPoint x="130" y="160" as="sourcePoint" />
            <mxPoint x="210" y="160" as="targetPoint" />
          </mxGeometry>
        </mxCell>
        <mxCell id="T4XdsdlbijRNTrrH30KJ-8" value="AEDWindow" style="shape=umlLifeline;perimeter=lifelinePerimeter;whiteSpace=wrap;html=1;container=1;dropTarget=0;collapsible=0;recursiveResize=0;outlineConnect=0;portConstraint=eastwest;newEdgeStyle={&quot;curved&quot;:0,&quot;rounded&quot;:0};fontStyle=1;opacity=30;" parent="1" vertex="1">
          <mxGeometry x="480" y="90" width="100" height="2208" as="geometry" />
        </mxCell>
        <mxCell id="T4XdsdlbijRNTrrH30KJ-9" value="" style="html=1;points=[[0,0,0,0,5],[0,1,0,0,-5],[1,0,0,0,5],[1,1,0,0,-5]];perimeter=orthogonalPerimeter;outlineConnect=0;targetShapes=umlLifeline;portConstraint=eastwest;newEdgeStyle={&quot;curved&quot;:0,&quot;rounded&quot;:0};fontStyle=1" parent="T4XdsdlbijRNTrrH30KJ-8" vertex="1">
          <mxGeometry x="45" y="76" width="10" height="35" as="geometry" />
        </mxCell>
        <mxCell id="T4XdsdlbijRNTrrH30KJ-14" value="" style="html=1;points=[[0,0,0,0,5],[0,1,0,0,-5],[1,0,0,0,5],[1,1,0,0,-5]];perimeter=orthogonalPerimeter;outlineConnect=0;targetShapes=umlLifeline;portConstraint=eastwest;newEdgeStyle={&quot;curved&quot;:0,&quot;rounded&quot;:0};fontStyle=1" parent="T4XdsdlbijRNTrrH30KJ-8" vertex="1">
          <mxGeometry x="45" y="121" width="10" height="722" as="geometry" />
        </mxCell>
        <mxCell id="T4XdsdlbijRNTrrH30KJ-15" value="togglePower()" style="html=1;align=left;spacingLeft=2;endArrow=block;rounded=0;edgeStyle=orthogonalEdgeStyle;curved=0;rounded=0;fontStyle=1" parent="T4XdsdlbijRNTrrH30KJ-8" source="T4XdsdlbijRNTrrH30KJ-9" target="T4XdsdlbijRNTrrH30KJ-14" edge="1">
          <mxGeometry x="0.0008" relative="1" as="geometry">
            <mxPoint x="-32" y="120" as="sourcePoint" />
            <Array as="points">
              <mxPoint x="19" y="106" />
              <mxPoint x="19" y="105" />
              <mxPoint x="-31" y="105" />
              <mxPoint x="-31" y="141" />
            </Array>
            <mxPoint x="-25" y="150" as="targetPoint" />
            <mxPoint as="offset" />
          </mxGeometry>
        </mxCell>
        <mxCell id="T4XdsdlbijRNTrrH30KJ-50" value="" style="html=1;points=[[0,0,0,0,5],[0,1,0,0,-5],[1,0,0,0,5],[1,1,0,0,-5]];perimeter=orthogonalPerimeter;outlineConnect=0;targetShapes=umlLifeline;portConstraint=eastwest;newEdgeStyle={&quot;curved&quot;:0,&quot;rounded&quot;:0};" parent="T4XdsdlbijRNTrrH30KJ-8" vertex="1">
          <mxGeometry x="51" y="764" width="10" height="43" as="geometry" />
        </mxCell>
        <mxCell id="T4XdsdlbijRNTrrH30KJ-10" value="" style="html=1;verticalAlign=bottom;endArrow=block;curved=0;rounded=0;fontStyle=1;fillColor=#a20025;strokeColor=#6F0000;strokeWidth=3;" parent="1" target="T4XdsdlbijRNTrrH30KJ-9" edge="1">
          <mxGeometry width="80" relative="1" as="geometry">
            <mxPoint x="354" y="180" as="sourcePoint" />
            <mxPoint x="528.5" y="182" as="targetPoint" />
          </mxGeometry>
        </mxCell>
        <mxCell id="T4XdsdlbijRNTrrH30KJ-11" value="released()" style="edgeLabel;html=1;align=center;verticalAlign=middle;resizable=0;points=[];fontStyle=1" parent="T4XdsdlbijRNTrrH30KJ-10" vertex="1" connectable="0">
          <mxGeometry x="-0.2773" y="1" relative="1" as="geometry">
            <mxPoint x="25" y="-6" as="offset" />
          </mxGeometry>
        </mxCell>
        <mxCell id="T4XdsdlbijRNTrrH30KJ-18" value="AEDController" style="shape=umlLifeline;perimeter=lifelinePerimeter;whiteSpace=wrap;html=1;container=1;dropTarget=0;collapsible=0;recursiveResize=0;outlineConnect=0;portConstraint=eastwest;newEdgeStyle={&quot;curved&quot;:0,&quot;rounded&quot;:0};fontStyle=1;opacity=30;" parent="1" vertex="1">
          <mxGeometry x="692" y="90" width="100" height="2209" as="geometry" />
        </mxCell>
        <mxCell id="T4XdsdlbijRNTrrH30KJ-19" value="" style="html=1;points=[[0,0,0,0,5],[0,1,0,0,-5],[1,0,0,0,5],[1,1,0,0,-5]];perimeter=orthogonalPerimeter;outlineConnect=0;targetShapes=umlLifeline;portConstraint=eastwest;newEdgeStyle={&quot;curved&quot;:0,&quot;rounded&quot;:0};fontStyle=1" parent="T4XdsdlbijRNTrrH30KJ-18" vertex="1">
          <mxGeometry x="45" y="160" width="10" height="33" as="geometry" />
        </mxCell>
        <mxCell id="T4XdsdlbijRNTrrH30KJ-45" value="" style="html=1;points=[[0,0,0,0,5],[0,1,0,0,-5],[1,0,0,0,5],[1,1,0,0,-5]];perimeter=orthogonalPerimeter;outlineConnect=0;targetShapes=umlLifeline;portConstraint=eastwest;newEdgeStyle={&quot;curved&quot;:0,&quot;rounded&quot;:0};" parent="T4XdsdlbijRNTrrH30KJ-18" vertex="1">
          <mxGeometry x="45" y="695" width="10" height="80" as="geometry" />
        </mxCell>
        <mxCell id="T4XdsdlbijRNTrrH30KJ-75" value="setState(POWER_OFF)" style="html=1;verticalAlign=bottom;endArrow=block;curved=0;rounded=0;" parent="T4XdsdlbijRNTrrH30KJ-18" edge="1">
          <mxGeometry width="80" relative="1" as="geometry">
            <mxPoint x="-156" y="823" as="sourcePoint" />
            <mxPoint x="41" y="823" as="targetPoint" />
          </mxGeometry>
        </mxCell>
        <mxCell id="T4XdsdlbijRNTrrH30KJ-76" value="" style="html=1;points=[[0,0,0,0,5],[0,1,0,0,-5],[1,0,0,0,5],[1,1,0,0,-5]];perimeter=orthogonalPerimeter;outlineConnect=0;targetShapes=umlLifeline;portConstraint=eastwest;newEdgeStyle={&quot;curved&quot;:0,&quot;rounded&quot;:0};" parent="T4XdsdlbijRNTrrH30KJ-18" vertex="1">
          <mxGeometry x="46" y="805" width="10" height="144" as="geometry" />
        </mxCell>
        <mxCell id="T4XdsdlbijRNTrrH30KJ-77" value="" style="html=1;points=[[0,0,0,0,5],[0,1,0,0,-5],[1,0,0,0,5],[1,1,0,0,-5]];perimeter=orthogonalPerimeter;outlineConnect=0;targetShapes=umlLifeline;portConstraint=eastwest;newEdgeStyle={&quot;curved&quot;:0,&quot;rounded&quot;:0};" parent="T4XdsdlbijRNTrrH30KJ-18" vertex="1">
          <mxGeometry x="52" y="860" width="10" height="40" as="geometry" />
        </mxCell>
        <mxCell id="T4XdsdlbijRNTrrH30KJ-78" value="setCurrentStep(POWER_OFF)" style="html=1;align=left;spacingLeft=2;endArrow=block;rounded=0;edgeStyle=orthogonalEdgeStyle;curved=0;rounded=0;" parent="T4XdsdlbijRNTrrH30KJ-18" target="T4XdsdlbijRNTrrH30KJ-77" edge="1">
          <mxGeometry relative="1" as="geometry">
            <mxPoint x="57" y="840" as="sourcePoint" />
            <Array as="points">
              <mxPoint x="87" y="870" />
            </Array>
          </mxGeometry>
        </mxCell>
        <mxCell id="T4XdsdlbijRNTrrH30KJ-20" value="getCurrentStep()" style="html=1;verticalAlign=bottom;endArrow=block;curved=0;rounded=0;fontStyle=1" parent="1" source="T4XdsdlbijRNTrrH30KJ-14" edge="1">
          <mxGeometry width="80" relative="1" as="geometry">
            <mxPoint x="563" y="258" as="sourcePoint" />
            <mxPoint x="736" y="259" as="targetPoint" />
          </mxGeometry>
        </mxCell>
        <mxCell id="T4XdsdlbijRNTrrH30KJ-21" value="return currentStep" style="html=1;verticalAlign=bottom;endArrow=open;dashed=1;endSize=8;curved=0;rounded=0;exitX=0;exitY=1;exitDx=0;exitDy=-5;exitPerimeter=0;fontStyle=1" parent="1" source="T4XdsdlbijRNTrrH30KJ-19" edge="1">
          <mxGeometry relative="1" as="geometry">
            <mxPoint x="692" y="294" as="sourcePoint" />
            <mxPoint x="537" y="278" as="targetPoint" />
          </mxGeometry>
        </mxCell>
        <mxCell id="T4XdsdlbijRNTrrH30KJ-22" value="alt" style="shape=umlFrame;whiteSpace=wrap;html=1;pointerEvents=0;fontStyle=1" parent="1" vertex="1">
          <mxGeometry x="282" y="291" width="2254" height="1813" as="geometry" />
        </mxCell>
        <mxCell id="T4XdsdlbijRNTrrH30KJ-23" value="&lt;span style=&quot;background-color: rgb(77, 77, 77);&quot;&gt;[currentStep != POWER_OFF]&lt;/span&gt;" style="text;html=1;align=center;verticalAlign=middle;resizable=0;points=[];autosize=1;strokeColor=none;fillColor=none;fontStyle=1" parent="1" vertex="1">
          <mxGeometry x="475" y="305" width="187" height="26" as="geometry" />
        </mxCell>
        <mxCell id="T4XdsdlbijRNTrrH30KJ-25" value="QObject" style="shape=umlLifeline;perimeter=lifelinePerimeter;whiteSpace=wrap;html=1;container=1;dropTarget=0;collapsible=0;recursiveResize=0;outlineConnect=0;portConstraint=eastwest;newEdgeStyle={&quot;curved&quot;:0,&quot;rounded&quot;:0};fontStyle=1;opacity=30;" parent="1" vertex="1">
          <mxGeometry x="1033" y="90" width="100" height="2206" as="geometry" />
        </mxCell>
        <mxCell id="T4XdsdlbijRNTrrH30KJ-26" value="" style="html=1;points=[[0,0,0,0,5],[0,1,0,0,-5],[1,0,0,0,5],[1,1,0,0,-5]];perimeter=orthogonalPerimeter;outlineConnect=0;targetShapes=umlLifeline;portConstraint=eastwest;newEdgeStyle={&quot;curved&quot;:0,&quot;rounded&quot;:0};fontStyle=1" parent="T4XdsdlbijRNTrrH30KJ-25" vertex="1">
          <mxGeometry x="45" y="243" width="10" height="80" as="geometry" />
        </mxCell>
        <mxCell id="T4XdsdlbijRNTrrH30KJ-55" value="" style="html=1;points=[[0,0,0,0,5],[0,1,0,0,-5],[1,0,0,0,5],[1,1,0,0,-5]];perimeter=orthogonalPerimeter;outlineConnect=0;targetShapes=umlLifeline;portConstraint=eastwest;newEdgeStyle={&quot;curved&quot;:0,&quot;rounded&quot;:0};" parent="T4XdsdlbijRNTrrH30KJ-25" vertex="1">
          <mxGeometry x="43" y="1062" width="10" height="80" as="geometry" />
        </mxCell>
        <mxCell id="T4XdsdlbijRNTrrH30KJ-27" value="disconnect(controlThread, SIGNAL(started(),&amp;nbsp; 0,&amp;nbsp; 0)" style="html=1;verticalAlign=bottom;endArrow=block;curved=0;rounded=0;entryX=0.1;entryY=0.26;entryDx=0;entryDy=0;entryPerimeter=0;fontStyle=1" parent="1" source="T4XdsdlbijRNTrrH30KJ-14" target="T4XdsdlbijRNTrrH30KJ-26" edge="1">
          <mxGeometry width="80" relative="1" as="geometry">
            <mxPoint x="553" y="349" as="sourcePoint" />
            <mxPoint x="633" y="349" as="targetPoint" />
          </mxGeometry>
        </mxCell>
        <mxCell id="T4XdsdlbijRNTrrH30KJ-28" value="" style="html=1;points=[[0,0,0,0,5],[0,1,0,0,-5],[1,0,0,0,5],[1,1,0,0,-5]];perimeter=orthogonalPerimeter;outlineConnect=0;targetShapes=umlLifeline;portConstraint=eastwest;newEdgeStyle={&quot;curved&quot;:0,&quot;rounded&quot;:0};fontStyle=1" parent="1" vertex="1">
          <mxGeometry x="737" y="369" width="10" height="112" as="geometry" />
        </mxCell>
        <mxCell id="T4XdsdlbijRNTrrH30KJ-29" value="powerAEDOff()" style="html=1;verticalAlign=bottom;endArrow=block;curved=0;rounded=0;fontStyle=1" parent="1" edge="1">
          <mxGeometry width="80" relative="1" as="geometry">
            <mxPoint x="535" y="387.58" as="sourcePoint" />
            <mxPoint x="737" y="387.58" as="targetPoint" />
          </mxGeometry>
        </mxCell>
        <mxCell id="T4XdsdlbijRNTrrH30KJ-30" value="" style="html=1;points=[[0,0,0,0,5],[0,1,0,0,-5],[1,0,0,0,5],[1,1,0,0,-5]];perimeter=orthogonalPerimeter;outlineConnect=0;targetShapes=umlLifeline;portConstraint=eastwest;newEdgeStyle={&quot;curved&quot;:0,&quot;rounded&quot;:0};fontStyle=1" parent="1" vertex="1">
          <mxGeometry x="743" y="420" width="10" height="40" as="geometry" />
        </mxCell>
        <mxCell id="T4XdsdlbijRNTrrH30KJ-31" value="cleanup()" style="html=1;align=left;spacingLeft=2;endArrow=block;rounded=0;edgeStyle=orthogonalEdgeStyle;curved=0;rounded=0;fontStyle=1" parent="1" target="T4XdsdlbijRNTrrH30KJ-30" edge="1">
          <mxGeometry relative="1" as="geometry">
            <mxPoint x="748" y="400" as="sourcePoint" />
            <Array as="points">
              <mxPoint x="778" y="430" />
            </Array>
          </mxGeometry>
        </mxCell>
        <mxCell id="T4XdsdlbijRNTrrH30KJ-32" value="alt" style="shape=umlFrame;whiteSpace=wrap;html=1;pointerEvents=0;fontStyle=1" parent="1" vertex="1">
          <mxGeometry x="441" y="560" width="1039" height="200" as="geometry" />
        </mxCell>
        <mxCell id="T4XdsdlbijRNTrrH30KJ-33" value="QThread" style="shape=umlLifeline;perimeter=lifelinePerimeter;whiteSpace=wrap;html=1;container=1;dropTarget=0;collapsible=0;recursiveResize=0;outlineConnect=0;portConstraint=eastwest;newEdgeStyle={&quot;curved&quot;:0,&quot;rounded&quot;:0};fontStyle=1;opacity=30;" parent="1" vertex="1">
          <mxGeometry x="1365" y="90" width="100" height="2206" as="geometry" />
        </mxCell>
        <mxCell id="T4XdsdlbijRNTrrH30KJ-34" value="" style="html=1;points=[[0,0,0,0,5],[0,1,0,0,-5],[1,0,0,0,5],[1,1,0,0,-5]];perimeter=orthogonalPerimeter;outlineConnect=0;targetShapes=umlLifeline;portConstraint=eastwest;newEdgeStyle={&quot;curved&quot;:0,&quot;rounded&quot;:0};fontStyle=1" parent="T4XdsdlbijRNTrrH30KJ-33" vertex="1">
          <mxGeometry x="43" y="404" width="10" height="54" as="geometry" />
        </mxCell>
        <mxCell id="T4XdsdlbijRNTrrH30KJ-39" value="" style="html=1;points=[[0,0,0,0,5],[0,1,0,0,-5],[1,0,0,0,5],[1,1,0,0,-5]];perimeter=orthogonalPerimeter;outlineConnect=0;targetShapes=umlLifeline;portConstraint=eastwest;newEdgeStyle={&quot;curved&quot;:0,&quot;rounded&quot;:0};fontStyle=1" parent="T4XdsdlbijRNTrrH30KJ-33" vertex="1">
          <mxGeometry x="45" y="546" width="10" height="33" as="geometry" />
        </mxCell>
        <mxCell id="T4XdsdlbijRNTrrH30KJ-40" value="" style="html=1;points=[[0,0,0,0,5],[0,1,0,0,-5],[1,0,0,0,5],[1,1,0,0,-5]];perimeter=orthogonalPerimeter;outlineConnect=0;targetShapes=umlLifeline;portConstraint=eastwest;newEdgeStyle={&quot;curved&quot;:0,&quot;rounded&quot;:0};fontStyle=1" parent="T4XdsdlbijRNTrrH30KJ-33" vertex="1">
          <mxGeometry x="45" y="608" width="10" height="33" as="geometry" />
        </mxCell>
        <mxCell id="T4XdsdlbijRNTrrH30KJ-63" value="" style="html=1;points=[[0,0,0,0,5],[0,1,0,0,-5],[1,0,0,0,5],[1,1,0,0,-5]];perimeter=orthogonalPerimeter;outlineConnect=0;targetShapes=umlLifeline;portConstraint=eastwest;newEdgeStyle={&quot;curved&quot;:0,&quot;rounded&quot;:0};" parent="T4XdsdlbijRNTrrH30KJ-33" vertex="1">
          <mxGeometry x="44" y="1216" width="10" height="80" as="geometry" />
        </mxCell>
        <mxCell id="T4XdsdlbijRNTrrH30KJ-35" value="isRunning()" style="html=1;verticalAlign=bottom;endArrow=block;curved=0;rounded=0;fontStyle=1" parent="1" source="T4XdsdlbijRNTrrH30KJ-8" edge="1">
          <mxGeometry width="80" relative="1" as="geometry">
            <mxPoint x="870" y="498" as="sourcePoint" />
            <mxPoint x="1405" y="507" as="targetPoint" />
          </mxGeometry>
        </mxCell>
        <mxCell id="T4XdsdlbijRNTrrH30KJ-36" value="return isRunning" style="html=1;verticalAlign=bottom;endArrow=open;dashed=1;endSize=8;curved=0;rounded=0;fontStyle=1" parent="1" edge="1">
          <mxGeometry x="0.0001" relative="1" as="geometry">
            <mxPoint x="1407" y="540" as="sourcePoint" />
            <mxPoint x="538" y="540" as="targetPoint" />
            <mxPoint as="offset" />
          </mxGeometry>
        </mxCell>
        <mxCell id="T4XdsdlbijRNTrrH30KJ-38" value="&lt;span style=&quot;background-color: rgb(77, 77, 77);&quot;&gt;[True]&lt;/span&gt;" style="text;html=1;align=center;verticalAlign=middle;resizable=0;points=[];autosize=1;strokeColor=none;fillColor=none;fontStyle=1" parent="1" vertex="1">
          <mxGeometry x="504.5" y="603" width="51" height="26" as="geometry" />
        </mxCell>
        <mxCell id="T4XdsdlbijRNTrrH30KJ-41" value="quit()" style="html=1;verticalAlign=bottom;endArrow=block;curved=0;rounded=0;fontStyle=1" parent="1" edge="1">
          <mxGeometry width="80" relative="1" as="geometry">
            <mxPoint x="538" y="643" as="sourcePoint" />
            <mxPoint x="1410.4999999999995" y="646" as="targetPoint" />
            <mxPoint as="offset" />
          </mxGeometry>
        </mxCell>
        <mxCell id="T4XdsdlbijRNTrrH30KJ-42" value="wait()" style="html=1;verticalAlign=bottom;endArrow=block;curved=0;rounded=0;fontStyle=1" parent="1" edge="1">
          <mxGeometry width="80" relative="1" as="geometry">
            <mxPoint x="538" y="707" as="sourcePoint" />
            <mxPoint x="1410.4999999999995" y="710" as="targetPoint" />
            <mxPoint as="offset" />
          </mxGeometry>
        </mxCell>
        <mxCell id="T4XdsdlbijRNTrrH30KJ-43" value="AED" style="shape=umlLifeline;perimeter=lifelinePerimeter;whiteSpace=wrap;html=1;container=1;dropTarget=0;collapsible=0;recursiveResize=0;outlineConnect=0;portConstraint=eastwest;newEdgeStyle={&quot;curved&quot;:0,&quot;rounded&quot;:0};opacity=30;" parent="1" vertex="1">
          <mxGeometry x="1719" y="90" width="100" height="2204" as="geometry" />
        </mxCell>
        <mxCell id="T4XdsdlbijRNTrrH30KJ-48" value="" style="html=1;points=[[0,0,0,0,5],[0,1,0,0,-5],[1,0,0,0,5],[1,1,0,0,-5]];perimeter=orthogonalPerimeter;outlineConnect=0;targetShapes=umlLifeline;portConstraint=eastwest;newEdgeStyle={&quot;curved&quot;:0,&quot;rounded&quot;:0};" parent="T4XdsdlbijRNTrrH30KJ-43" vertex="1">
          <mxGeometry x="45" y="784" width="10" height="41" as="geometry" />
        </mxCell>
        <mxCell id="T4XdsdlbijRNTrrH30KJ-46" value="getAED()" style="html=1;verticalAlign=bottom;endArrow=block;curved=0;rounded=0;entryX=0;entryY=0;entryDx=0;entryDy=5;" parent="1" source="T4XdsdlbijRNTrrH30KJ-14" target="T4XdsdlbijRNTrrH30KJ-45" edge="1">
          <mxGeometry relative="1" as="geometry">
            <mxPoint x="667" y="790" as="sourcePoint" />
          </mxGeometry>
        </mxCell>
        <mxCell id="T4XdsdlbijRNTrrH30KJ-47" value="return AED Object" style="html=1;verticalAlign=bottom;endArrow=open;dashed=1;endSize=8;curved=0;rounded=0;exitX=0;exitY=1;exitDx=0;exitDy=-5;entryX=1;entryY=0;entryDx=0;entryDy=5;entryPerimeter=0;" parent="1" source="T4XdsdlbijRNTrrH30KJ-45" target="T4XdsdlbijRNTrrH30KJ-50" edge="1">
          <mxGeometry relative="1" as="geometry">
            <mxPoint x="564" y="860" as="targetPoint" />
          </mxGeometry>
        </mxCell>
        <mxCell id="T4XdsdlbijRNTrrH30KJ-49" value="playAudio(POWER_OFF_AUDIO)" style="html=1;verticalAlign=bottom;endArrow=block;curved=0;rounded=0;" parent="1" source="T4XdsdlbijRNTrrH30KJ-50" edge="1">
          <mxGeometry width="80" relative="1" as="geometry">
            <mxPoint x="582" y="888" as="sourcePoint" />
            <mxPoint x="1763.5400000000004" y="888" as="targetPoint" />
          </mxGeometry>
        </mxCell>
        <mxCell id="T4XdsdlbijRNTrrH30KJ-53" value="" style="line;strokeWidth=1;fillColor=none;align=left;verticalAlign=middle;spacingTop=-1;spacingLeft=3;spacingRight=3;rotatable=0;labelPosition=right;points=[];portConstraint=eastwest;strokeColor=inherit;dashed=1;dashPattern=8 8;" parent="1" vertex="1">
          <mxGeometry x="331" y="1063" width="2148" height="8" as="geometry" />
        </mxCell>
        <mxCell id="T4XdsdlbijRNTrrH30KJ-54" value="&lt;span style=&quot;background-color: rgb(77, 77, 77);&quot;&gt;[Else]&lt;/span&gt;" style="text;html=1;align=center;verticalAlign=middle;resizable=0;points=[];autosize=1;strokeColor=none;fillColor=none;fontStyle=1" parent="1" vertex="1">
          <mxGeometry x="502.5" y="1098" width="51" height="26" as="geometry" />
        </mxCell>
        <mxCell id="T4XdsdlbijRNTrrH30KJ-56" value="" style="html=1;points=[[0,0,0,0,5],[0,1,0,0,-5],[1,0,0,0,5],[1,1,0,0,-5]];perimeter=orthogonalPerimeter;outlineConnect=0;targetShapes=umlLifeline;portConstraint=eastwest;newEdgeStyle={&quot;curved&quot;:0,&quot;rounded&quot;:0};" parent="1" vertex="1">
          <mxGeometry x="523" y="1152" width="10" height="849" as="geometry" />
        </mxCell>
        <mxCell id="T4XdsdlbijRNTrrH30KJ-58" value="connect(controlThread, SIGNAL(started()), controller, SLOT(run())" style="html=1;verticalAlign=bottom;endArrow=block;curved=0;rounded=0;" parent="1" edge="1">
          <mxGeometry width="80" relative="1" as="geometry">
            <mxPoint x="533.0000000000002" y="1166" as="sourcePoint" />
            <mxPoint x="1071" y="1166" as="targetPoint" />
          </mxGeometry>
        </mxCell>
        <mxCell id="T4XdsdlbijRNTrrH30KJ-59" value="" style="html=1;points=[[0,0,0,0,5],[0,1,0,0,-5],[1,0,0,0,5],[1,1,0,0,-5]];perimeter=orthogonalPerimeter;outlineConnect=0;targetShapes=umlLifeline;portConstraint=eastwest;newEdgeStyle={&quot;curved&quot;:0,&quot;rounded&quot;:0};" parent="1" vertex="1">
          <mxGeometry x="736" y="1185" width="10" height="80" as="geometry" />
        </mxCell>
        <mxCell id="T4XdsdlbijRNTrrH30KJ-60" value="moveToThread(controlThread)" style="html=1;verticalAlign=bottom;endArrow=block;curved=0;rounded=0;" parent="1" target="T4XdsdlbijRNTrrH30KJ-59" edge="1">
          <mxGeometry width="80" relative="1" as="geometry">
            <mxPoint x="532.9999999999998" y="1201" as="sourcePoint" />
            <mxPoint x="730" y="1198" as="targetPoint" />
          </mxGeometry>
        </mxCell>
        <mxCell id="T4XdsdlbijRNTrrH30KJ-62" value="batteryBar-&amp;gt;setTextVisible(true)" style="html=1;verticalAlign=bottom;endArrow=block;curved=0;rounded=0;" parent="1" edge="1">
          <mxGeometry width="80" relative="1" as="geometry">
            <mxPoint x="523" y="1238" as="sourcePoint" />
            <mxPoint x="353" y="1238" as="targetPoint" />
          </mxGeometry>
        </mxCell>
        <mxCell id="T4XdsdlbijRNTrrH30KJ-64" value="start()" style="html=1;verticalAlign=bottom;endArrow=block;curved=0;rounded=0;" parent="1" edge="1">
          <mxGeometry width="80" relative="1" as="geometry">
            <mxPoint x="534" y="1326" as="sourcePoint" />
            <mxPoint x="1408.8199999999995" y="1326" as="targetPoint" />
          </mxGeometry>
        </mxCell>
        <mxCell id="T4XdsdlbijRNTrrH30KJ-65" value="" style="html=1;points=[[0,0,0,0,5],[0,1,0,0,-5],[1,0,0,0,5],[1,1,0,0,-5]];perimeter=orthogonalPerimeter;outlineConnect=0;targetShapes=umlLifeline;portConstraint=eastwest;newEdgeStyle={&quot;curved&quot;:0,&quot;rounded&quot;:0};" parent="1" vertex="1">
          <mxGeometry x="529" y="1422" width="10" height="43" as="geometry" />
        </mxCell>
        <mxCell id="T4XdsdlbijRNTrrH30KJ-66" value="" style="html=1;points=[[0,0,0,0,5],[0,1,0,0,-5],[1,0,0,0,5],[1,1,0,0,-5]];perimeter=orthogonalPerimeter;outlineConnect=0;targetShapes=umlLifeline;portConstraint=eastwest;newEdgeStyle={&quot;curved&quot;:0,&quot;rounded&quot;:0};" parent="1" vertex="1">
          <mxGeometry x="735" y="1353" width="10" height="80" as="geometry" />
        </mxCell>
        <mxCell id="T4XdsdlbijRNTrrH30KJ-67" value="getAED()" style="html=1;verticalAlign=bottom;endArrow=block;curved=0;rounded=0;entryX=0;entryY=0;entryDx=0;entryDy=5;" parent="1" target="T4XdsdlbijRNTrrH30KJ-66" edge="1">
          <mxGeometry relative="1" as="geometry">
            <mxPoint x="533" y="1358" as="sourcePoint" />
          </mxGeometry>
        </mxCell>
        <mxCell id="T4XdsdlbijRNTrrH30KJ-68" value="return AED Object" style="html=1;verticalAlign=bottom;endArrow=open;dashed=1;endSize=8;curved=0;rounded=0;exitX=0;exitY=1;exitDx=0;exitDy=-5;entryX=1;entryY=0;entryDx=0;entryDy=5;entryPerimeter=0;" parent="1" source="T4XdsdlbijRNTrrH30KJ-66" target="T4XdsdlbijRNTrrH30KJ-65" edge="1">
          <mxGeometry relative="1" as="geometry">
            <mxPoint x="562" y="1428" as="targetPoint" />
          </mxGeometry>
        </mxCell>
        <mxCell id="T4XdsdlbijRNTrrH30KJ-69" value="playAudio(POWER_ON_AUDIO)" style="html=1;verticalAlign=bottom;endArrow=block;curved=0;rounded=0;" parent="1" edge="1">
          <mxGeometry width="80" relative="1" as="geometry">
            <mxPoint x="539" y="1447" as="sourcePoint" />
            <mxPoint x="1761.5400000000004" y="1447" as="targetPoint" />
          </mxGeometry>
        </mxCell>
        <mxCell id="T4XdsdlbijRNTrrH30KJ-71" value="setState(POWER_ON)" style="html=1;verticalAlign=bottom;endArrow=block;curved=0;rounded=0;" parent="1" edge="1">
          <mxGeometry width="80" relative="1" as="geometry">
            <mxPoint x="533" y="1483" as="sourcePoint" />
            <mxPoint x="730" y="1483" as="targetPoint" />
          </mxGeometry>
        </mxCell>
        <mxCell id="T4XdsdlbijRNTrrH30KJ-72" value="" style="html=1;points=[[0,0,0,0,5],[0,1,0,0,-5],[1,0,0,0,5],[1,1,0,0,-5]];perimeter=orthogonalPerimeter;outlineConnect=0;targetShapes=umlLifeline;portConstraint=eastwest;newEdgeStyle={&quot;curved&quot;:0,&quot;rounded&quot;:0};" parent="1" vertex="1">
          <mxGeometry x="735" y="1465" width="10" height="144" as="geometry" />
        </mxCell>
        <mxCell id="T4XdsdlbijRNTrrH30KJ-73" value="" style="html=1;points=[[0,0,0,0,5],[0,1,0,0,-5],[1,0,0,0,5],[1,1,0,0,-5]];perimeter=orthogonalPerimeter;outlineConnect=0;targetShapes=umlLifeline;portConstraint=eastwest;newEdgeStyle={&quot;curved&quot;:0,&quot;rounded&quot;:0};" parent="1" vertex="1">
          <mxGeometry x="741" y="1520" width="10" height="40" as="geometry" />
        </mxCell>
        <mxCell id="T4XdsdlbijRNTrrH30KJ-74" value="setCurrentStep(POWER_ON)" style="html=1;align=left;spacingLeft=2;endArrow=block;rounded=0;edgeStyle=orthogonalEdgeStyle;curved=0;rounded=0;" parent="1" target="T4XdsdlbijRNTrrH30KJ-73" edge="1">
          <mxGeometry relative="1" as="geometry">
            <mxPoint x="746" y="1500" as="sourcePoint" />
            <Array as="points">
              <mxPoint x="776" y="1530" />
            </Array>
          </mxGeometry>
        </mxCell>
        <mxCell id="T4XdsdlbijRNTrrH30KJ-79" value="" style="html=1;points=[[0,0,0,0,5],[0,1,0,0,-5],[1,0,0,0,5],[1,1,0,0,-5]];perimeter=orthogonalPerimeter;outlineConnect=0;targetShapes=umlLifeline;portConstraint=eastwest;newEdgeStyle={&quot;curved&quot;:0,&quot;rounded&quot;:0};" parent="1" vertex="1">
          <mxGeometry x="736" y="1652" width="10" height="80" as="geometry" />
        </mxCell>
        <mxCell id="T4XdsdlbijRNTrrH30KJ-80" value="powerAEDOn()" style="html=1;verticalAlign=bottom;endArrow=block;curved=0;rounded=0;" parent="1" edge="1">
          <mxGeometry width="80" relative="1" as="geometry">
            <mxPoint x="530.4473684210525" y="1670" as="sourcePoint" />
            <mxPoint x="737" y="1670" as="targetPoint" />
          </mxGeometry>
        </mxCell>
        <mxCell id="T4XdsdlbijRNTrrH30KJ-81" value="" style="html=1;points=[[0,0,0,0,5],[0,1,0,0,-5],[1,0,0,0,5],[1,1,0,0,-5]];perimeter=orthogonalPerimeter;outlineConnect=0;targetShapes=umlLifeline;portConstraint=eastwest;newEdgeStyle={&quot;curved&quot;:0,&quot;rounded&quot;:0};" parent="1" vertex="1">
          <mxGeometry x="529" y="1763" width="10" height="32" as="geometry" />
        </mxCell>
        <mxCell id="T4XdsdlbijRNTrrH30KJ-82" value="setPowerLight(true)" style="html=1;align=left;spacingLeft=2;endArrow=block;rounded=0;edgeStyle=orthogonalEdgeStyle;curved=0;rounded=0;" parent="1" target="T4XdsdlbijRNTrrH30KJ-81" edge="1">
          <mxGeometry relative="1" as="geometry">
            <mxPoint x="534" y="1743" as="sourcePoint" />
            <Array as="points">
              <mxPoint x="564" y="1773" />
            </Array>
          </mxGeometry>
        </mxCell>
        <mxCell id="T4XdsdlbijRNTrrH30KJ-83" value="return successfulPowerOn" style="html=1;verticalAlign=bottom;endArrow=open;dashed=1;endSize=8;curved=0;rounded=0;" parent="1" edge="1">
          <mxGeometry relative="1" as="geometry">
            <mxPoint x="730" y="1705" as="sourcePoint" />
            <mxPoint x="532.9973684210524" y="1705" as="targetPoint" />
          </mxGeometry>
        </mxCell>
        <mxCell id="T4XdsdlbijRNTrrH30KJ-84" value="alt" style="shape=umlFrame;whiteSpace=wrap;html=1;pointerEvents=0;" parent="1" vertex="1">
          <mxGeometry x="407" y="1807" width="325" height="200" as="geometry" />
        </mxCell>
        <mxCell id="T4XdsdlbijRNTrrH30KJ-85" value="&lt;span style=&quot;background-color: rgb(77, 77, 77);&quot;&gt;!successfullPowerOn&lt;/span&gt;" style="text;html=1;align=center;verticalAlign=middle;resizable=0;points=[];autosize=1;strokeColor=none;fillColor=none;fontStyle=1" parent="1" vertex="1">
          <mxGeometry x="458.5" y="1825" width="140" height="26" as="geometry" />
        </mxCell>
        <mxCell id="T4XdsdlbijRNTrrH30KJ-86" value="" style="html=1;points=[[0,0,0,0,5],[0,1,0,0,-5],[1,0,0,0,5],[1,1,0,0,-5]];perimeter=orthogonalPerimeter;outlineConnect=0;targetShapes=umlLifeline;portConstraint=eastwest;newEdgeStyle={&quot;curved&quot;:0,&quot;rounded&quot;:0};" parent="1" vertex="1">
          <mxGeometry x="530" y="1882" width="10" height="40" as="geometry" />
        </mxCell>
        <mxCell id="T4XdsdlbijRNTrrH30KJ-87" value="consoleOut(&quot;AED Did Not &lt;br&gt;&lt;span style=&quot;white-space: pre;&quot;&gt;&#x9;&lt;/span&gt;Pass Tests, Powering Off&quot;)" style="html=1;align=left;spacingLeft=2;endArrow=block;rounded=0;edgeStyle=orthogonalEdgeStyle;curved=0;rounded=0;" parent="1" target="T4XdsdlbijRNTrrH30KJ-86" edge="1">
          <mxGeometry relative="1" as="geometry">
            <mxPoint x="535" y="1862" as="sourcePoint" />
            <Array as="points">
              <mxPoint x="565" y="1892" />
            </Array>
          </mxGeometry>
        </mxCell>
        <mxCell id="T4XdsdlbijRNTrrH30KJ-88" value="" style="html=1;points=[[0,0,0,0,5],[0,1,0,0,-5],[1,0,0,0,5],[1,1,0,0,-5]];perimeter=orthogonalPerimeter;outlineConnect=0;targetShapes=umlLifeline;portConstraint=eastwest;newEdgeStyle={&quot;curved&quot;:0,&quot;rounded&quot;:0};" parent="1" vertex="1">
          <mxGeometry x="529" y="1954" width="10" height="40" as="geometry" />
        </mxCell>
        <mxCell id="T4XdsdlbijRNTrrH30KJ-89" value="togglePower()" style="html=1;align=left;spacingLeft=2;endArrow=block;rounded=0;edgeStyle=orthogonalEdgeStyle;curved=0;rounded=0;" parent="1" target="T4XdsdlbijRNTrrH30KJ-88" edge="1">
          <mxGeometry relative="1" as="geometry">
            <mxPoint x="534" y="1934" as="sourcePoint" />
            <Array as="points">
              <mxPoint x="564" y="1964" />
            </Array>
          </mxGeometry>
        </mxCell>
        <mxCell id="T4XdsdlbijRNTrrH30KJ-92" value="MediaPlayer" style="shape=umlLifeline;perimeter=lifelinePerimeter;whiteSpace=wrap;html=1;container=1;dropTarget=0;collapsible=0;recursiveResize=0;outlineConnect=0;portConstraint=eastwest;newEdgeStyle={&quot;curved&quot;:0,&quot;rounded&quot;:0};opacity=30;" parent="1" vertex="1">
          <mxGeometry x="2057" y="90" width="105" height="2204" as="geometry" />
        </mxCell>
        <mxCell id="T4XdsdlbijRNTrrH30KJ-95" value="" style="html=1;points=[[0,0,0,0,5],[0,1,0,0,-5],[1,0,0,0,5],[1,1,0,0,-5]];perimeter=orthogonalPerimeter;outlineConnect=0;targetShapes=umlLifeline;portConstraint=eastwest;newEdgeStyle={&quot;curved&quot;:0,&quot;rounded&quot;:0};" parent="T4XdsdlbijRNTrrH30KJ-92" vertex="1">
          <mxGeometry x="47.5" y="794" width="10" height="80" as="geometry" />
        </mxCell>
        <mxCell id="T4XdsdlbijRNTrrH30KJ-98" value="" style="html=1;points=[[0,0,0,0,5],[0,1,0,0,-5],[1,0,0,0,5],[1,1,0,0,-5]];perimeter=orthogonalPerimeter;outlineConnect=0;targetShapes=umlLifeline;portConstraint=eastwest;newEdgeStyle={&quot;curved&quot;:0,&quot;rounded&quot;:0};" parent="T4XdsdlbijRNTrrH30KJ-92" vertex="1">
          <mxGeometry x="-293" y="1338" width="10" height="41" as="geometry" />
        </mxCell>
        <mxCell id="T4XdsdlbijRNTrrH30KJ-99" value="" style="html=1;points=[[0,0,0,0,5],[0,1,0,0,-5],[1,0,0,0,5],[1,1,0,0,-5]];perimeter=orthogonalPerimeter;outlineConnect=0;targetShapes=umlLifeline;portConstraint=eastwest;newEdgeStyle={&quot;curved&quot;:0,&quot;rounded&quot;:0};" parent="T4XdsdlbijRNTrrH30KJ-92" vertex="1">
          <mxGeometry x="47.5" y="1348" width="10" height="80" as="geometry" />
        </mxCell>
        <mxCell id="T4XdsdlbijRNTrrH30KJ-100" value="play(POWER_ON_AUDIO)" style="html=1;verticalAlign=bottom;endArrow=block;curved=0;rounded=0;" parent="T4XdsdlbijRNTrrH30KJ-92" edge="1">
          <mxGeometry width="80" relative="1" as="geometry">
            <mxPoint x="-281.99818181818205" y="1370" as="sourcePoint" />
            <mxPoint x="44" y="1370" as="targetPoint" />
          </mxGeometry>
        </mxCell>
        <mxCell id="T4XdsdlbijRNTrrH30KJ-97" value="play(POWER_OFF_AUDIO)" style="html=1;verticalAlign=bottom;endArrow=block;curved=0;rounded=0;" parent="1" edge="1">
          <mxGeometry width="80" relative="1" as="geometry">
            <mxPoint x="1775.001818181818" y="906" as="sourcePoint" />
            <mxPoint x="2101" y="904" as="targetPoint" />
          </mxGeometry>
        </mxCell>
        <mxCell id="WxXjzU62jXCh81LYTTTq-1" value="sd PowerButtonPressed" style="shape=umlFrame;whiteSpace=wrap;html=1;pointerEvents=0;width=176;height=33;" parent="1" vertex="1">
          <mxGeometry x="-106" y="-50" width="2799" height="2347" as="geometry" />
        </mxCell>
        <mxCell id="KQIuavTDYPPqLueAfvNL-1" value="&lt;font style=&quot;font-size: 55px;&quot;&gt;Use Case 1: Power On - Part 1&lt;/font&gt;" style="rounded=1;whiteSpace=wrap;html=1;" vertex="1" parent="1">
          <mxGeometry x="130" y="-152" width="804" height="102" as="geometry" />
        </mxCell>
      </root>
    </mxGraphModel>
  </diagram>
</mxfile>
